STARTFONT 2.1
COMMENT
COMMENT Converted from OpenType font "Q:\font stuff\winfont\Bauhaus-Demi.otf" by "otf2bdf 3.0".
COMMENT
FONT -FreeType-Bauhaus-Medium-R-Normal--36-360-72-72-P-162-ISO10646-1
SIZE 36 72 72
FONTBOUNDINGBOX 42 44 -6 -9
STARTPROPERTIES 19
FOUNDRY "FreeType"
FAMILY_NAME "Bauhaus"
WEIGHT_NAME "Medium"
SLANT "R"
SETWIDTH_NAME "Normal"
ADD_STYLE_NAME ""
PIXEL_SIZE 26
POINT_SIZE 360
RESOLUTION_X 72
RESOLUTION_Y 72
SPACING "P"
AVERAGE_WIDTH 162
CHARSET_REGISTRY "ISO10646"
CHARSET_ENCODING "1"
FONT_ASCENT 34
FONT_DESCENT 6
COPYRIGHT "Copyright (c) 1989 Adobe Systems Incorporated.  All Rights Reserved.Bauhaus is a registered trademark of International Typeface Corporation."
_OTF_FONTFILE "Q:\font stuff\winfont\Bauhaus-Demi.otf"
_OTF_PSNAME "Bauhaus-Demi"
ENDPROPERTIES
CHARS 228
STARTCHAR 0020
ENCODING 32
SWIDTH 277 0
DWIDTH 10 0
BBX 0 0 0 0
BITMAP
ENDCHAR
STARTCHAR 0021
ENCODING 33
SWIDTH 277 0
DWIDTH 10 0
BBX 6 26 2 0
BITMAP
FC
FC
FC
FC
FC
FC
FC
FC
FC
FC
FC
FC
FC
FC
FC
FC
FC
FC
FC
00
78
FC
FC
FC
FC
78
ENDCHAR
STARTCHAR 0022
ENCODING 34
SWIDTH 333 0
DWIDTH 12 0
BBX 10 10 1 15
BITMAP
F3C0
F3C0
F3C0
F3C0
F3C0
F3C0
F3C0
F3C0
F3C0
F3C0
ENDCHAR
STARTCHAR 0023
ENCODING 35
SWIDTH 555 0
DWIDTH 20 0
BBX 18 25 1 0
BITMAP
038700
078F00
078F00
078F00
070E00
070E00
070E00
7FFFC0
7FFFC0
FFFFC0
0F1E00
0F1E00
0E1C00
0E1C00
0E1C00
FFFFC0
FFFFC0
FFFFC0
1E3C00
1C3800
1C3800
1C3800
3C3800
3C7800
3C7800
ENDCHAR
STARTCHAR 0024
ENCODING 36
SWIDTH 555 0
DWIDTH 20 0
BBX 14 30 3 -1
BITMAP
0380
0380
0380
0380
0FFC
3FFC
7FFC
FFFC
F800
F800
FC00
7E00
7F80
3FC0
0FF0
07F8
01F8
00FC
007C
007C
FFFC
FFFC
FFF8
FFF0
FFE0
0380
0380
0380
0380
0380
ENDCHAR
STARTCHAR 0025
ENCODING 37
SWIDTH 888 0
DWIDTH 32 0
BBX 29 26 1 0
BITMAP
0F800700
3FE00E00
7FF00E00
7FF01C00
F8F81800
F0783800
F0787000
F0786000
F8F8E000
7FF1C000
7FF1C000
3FE38000
0F830000
00070F80
000E3FE0
000C7FF0
001C7FF0
0038F8F8
0030F078
0070F078
00E0F078
00E0F8F8
01C07FF0
01807FF0
03803FE0
07000F80
ENDCHAR
STARTCHAR 0026
ENCODING 38
SWIDTH 777 0
DWIDTH 28 0
BBX 25 26 3 0
BITMAP
07FFC000
0FFFC000
1FFFC000
1FFFC000
1FFFC000
1F800000
0FC02000
0FC07000
1FE0F000
3FF1F800
7FF8F800
7EFCFC00
FC7E7C00
F87F7C00
F83F7C00
F81FFC00
F80FFC00
F807FC00
FC03F800
7E03F800
7F07F800
3FFFFC00
3FFFFE00
1FFFFE00
07FF3F00
01FC1F80
ENDCHAR
STARTCHAR 0027
ENCODING 39
SWIDTH 222 0
DWIDTH 8 0
BBX 4 10 2 15
BITMAP
F0
F0
F0
F0
F0
F0
F0
F0
F0
F0
ENDCHAR
STARTCHAR 0028
ENCODING 40
SWIDTH 444 0
DWIDTH 16 0
BBX 10 34 3 -9
BITMAP
0080
03C0
03C0
07C0
0F80
1F00
1E00
3E00
3C00
7C00
7800
7800
7800
F000
F000
F000
F000
F000
F000
F000
F000
F000
7800
7800
7800
7C00
3C00
3E00
1F00
1F00
0F80
07C0
03C0
0180
ENDCHAR
STARTCHAR 0029
ENCODING 41
SWIDTH 444 0
DWIDTH 16 0
BBX 10 34 3 -7
BITMAP
6000
F000
F800
7C00
3E00
3E00
1F00
0F00
0F80
0780
0780
07C0
03C0
03C0
03C0
03C0
03C0
03C0
03C0
03C0
03C0
07C0
0780
0780
0F80
0F00
1F00
1E00
3E00
7C00
F800
F800
F000
4000
ENDCHAR
STARTCHAR 002A
ENCODING 42
SWIDTH 500 0
DWIDTH 18 0
BBX 13 13 2 12
BITMAP
0700
0700
6730
7770
FAF8
3FE0
0700
3FE0
FAF8
7770
6730
0700
0700
ENDCHAR
STARTCHAR 002B
ENCODING 43
SWIDTH 611 0
DWIDTH 22 0
BBX 18 18 2 0
BITMAP
01E000
01E000
01E000
01E000
01E000
01E000
01E000
FFFFC0
FFFFC0
FFFFC0
FFFFC0
01E000
01E000
01E000
01E000
01E000
01E000
01E000
ENDCHAR
STARTCHAR 002C
ENCODING 44
SWIDTH 277 0
DWIDTH 10 0
BBX 7 11 1 -6
BITMAP
3E
3E
7C
7C
7C
78
78
F8
F0
F0
F0
ENDCHAR
STARTCHAR 002D
ENCODING 45
SWIDTH 333 0
DWIDTH 12 0
BBX 8 4 2 7
BITMAP
FF
FF
FF
FF
ENDCHAR
STARTCHAR 002E
ENCODING 46
SWIDTH 277 0
DWIDTH 10 0
BBX 6 6 2 1
BITMAP
78
FC
FC
FC
FC
78
ENDCHAR
STARTCHAR 002F
ENCODING 47
SWIDTH 277 0
DWIDTH 10 0
BBX 12 26 -1 0
BITMAP
00F0
00F0
01E0
01E0
01E0
03C0
03C0
03C0
0780
0780
0780
0700
0F00
0F00
0F00
1E00
1E00
1E00
3C00
3C00
3C00
7800
7800
7800
F000
F000
ENDCHAR
STARTCHAR 0030
ENCODING 48
SWIDTH 555 0
DWIDTH 20 0
BBX 17 26 1 0
BITMAP
03F000
1FFC00
3FFE00
7FFF00
7FFF00
FE3F80
F80F80
F80F80
F80F80
F80F80
F80F80
F80F80
F80F80
F80F80
F80F80
F80F80
F80F80
F80F80
F80F80
FC0F80
FE3F80
7FFF00
7FFF00
3FFE00
1FFC00
07F000
ENDCHAR
STARTCHAR 0031
ENCODING 49
SWIDTH 555 0
DWIDTH 20 0
BBX 9 26 4 0
BITMAP
FF80
FF80
FF80
FF80
FF80
0F80
0F80
0F80
0F80
0F80
0F80
0F80
0F80
0F80
0F80
0F80
0F80
0F80
0F80
0F80
0F80
0F80
0F80
0F80
0F80
0F80
ENDCHAR
STARTCHAR 0032
ENCODING 50
SWIDTH 555 0
DWIDTH 20 0
BBX 17 26 1 0
BITMAP
03F000
1FFC00
3FFE00
7FFF00
7FFF00
FE3F80
F80F80
F80F80
F80F80
F81F80
FC1F80
7E3F00
7C7F00
38FE00
11FC00
03F800
07F000
0FE000
1F8000
3F0000
7E0000
FFFF80
FFFF80
FFFF80
FFFF80
7FFF80
ENDCHAR
STARTCHAR 0033
ENCODING 51
SWIDTH 555 0
DWIDTH 20 0
BBX 17 26 1 0
BITMAP
FFF800
FFFE00
FFFF00
FFFF00
FFFF00
007F00
00FE00
01FC00
03F800
07F000
0FE000
3FF800
3FFC00
3FFE00
3FFF00
003F80
001F80
001F80
001F80
001F80
007F80
FFFF00
FFFF00
FFFE00
FFFC00
FFF000
ENDCHAR
STARTCHAR 0034
ENCODING 52
SWIDTH 555 0
DWIDTH 20 0
BBX 18 26 0 0
BITMAP
007C00
00F900
01FB00
01F300
03F700
03E700
07CF00
07CF00
0F9F00
1F9F00
1F1F00
3F1F00
3E1F00
7C1F00
7C1F00
F81F00
FFFFC0
FFFFC0
FFFFC0
7FFFC0
3FFFC0
001F00
001F00
001F00
001F00
001F00
ENDCHAR
STARTCHAR 0035
ENCODING 53
SWIDTH 555 0
DWIDTH 20 0
BBX 17 26 2 0
BITMAP
FFFE00
FFFE00
FFFE00
FFFE00
FFFE00
F80000
F80000
F80000
F80000
FFF000
FFF800
FFFE00
FFFF00
FFFF00
007F80
001F80
001F80
001F80
001F80
001F80
007F80
FFFF00
FFFF00
FFFE00
FFFC00
FFF000
ENDCHAR
STARTCHAR 0036
ENCODING 54
SWIDTH 555 0
DWIDTH 20 0
BBX 18 26 1 0
BITMAP
00FC00
01FC00
01F800
03F000
03F000
07E000
0FE000
0FC000
1F8000
1F9C00
3F3E00
3F3F00
7E7F80
7C3F80
FC0FC0
F807C0
F807C0
F807C0
F807C0
FC0FC0
7FFF80
7FFF80
3FFF00
1FFE00
0FFC00
03F000
ENDCHAR
STARTCHAR 0037
ENCODING 55
SWIDTH 555 0
DWIDTH 20 0
BBX 16 26 2 0
BITMAP
FFFC
FFFF
FFFF
FFFF
FFFF
003F
003E
003E
007E
007C
007C
00FC
00F8
00F8
01F8
01F0
03F0
03F0
03E0
07E0
07E0
07C0
0FC0
0FC0
0F80
1F80
ENDCHAR
STARTCHAR 0038
ENCODING 56
SWIDTH 555 0
DWIDTH 20 0
BBX 16 26 2 0
BITMAP
07E0
1FF8
3FFC
7FFE
FE7F
FC3F
F81F
F81F
F81F
7C3E
7FFE
1FFC
3FFC
7FFE
7C3F
FC3F
F81F
F81F
F81F
FC1F
FC3F
7FFE
7FFE
3FFC
1FF8
07E0
ENDCHAR
STARTCHAR 0039
ENCODING 57
SWIDTH 555 0
DWIDTH 20 0
BBX 18 26 1 0
BITMAP
03F000
0FFC00
1FFE00
3FFF00
7FFF80
7FFF80
FC0FC0
F807C0
F807C0
F807C0
F807C0
FC0FC0
7F0F80
7F9F80
3F3F00
1F3F00
0E7E00
007E00
00FC00
01FC00
01F800
03F000
03F000
07E000
0FE000
0FC000
ENDCHAR
STARTCHAR 003A
ENCODING 58
SWIDTH 277 0
DWIDTH 10 0
BBX 6 17 2 0
BITMAP
78
FC
FC
FC
FC
78
00
00
00
00
00
78
FC
FC
FC
FC
78
ENDCHAR
STARTCHAR 003B
ENCODING 59
SWIDTH 277 0
DWIDTH 10 0
BBX 7 23 1 -6
BITMAP
3C
7E
7E
7E
7E
3C
00
00
00
00
00
00
3E
7C
7C
7C
78
78
F8
F0
F0
F0
E0
ENDCHAR
STARTCHAR 003C
ENCODING 60
SWIDTH 611 0
DWIDTH 22 0
BBX 17 18 2 0
BITMAP
000080
000380
001F80
007F80
01FE00
0FF800
3FE000
FF0000
FC0000
FC0000
FF0000
3FE000
0FF800
01FE00
007F80
001F80
000380
000080
ENDCHAR
STARTCHAR 003D
ENCODING 61
SWIDTH 611 0
DWIDTH 22 0
BBX 17 12 2 3
BITMAP
FFFF80
FFFF80
FFFF80
FFFF80
000000
000000
000000
000000
FFFF80
FFFF80
FFFF80
FFFF80
ENDCHAR
STARTCHAR 003E
ENCODING 62
SWIDTH 611 0
DWIDTH 22 0
BBX 17 18 2 0
BITMAP
800000
E00000
FC0000
FF0000
3FC000
0FF800
03FE00
007F80
001F80
001F80
007F80
03FE00
0FF800
3FC000
FF0000
FC0000
E00000
800000
ENDCHAR
STARTCHAR 003F
ENCODING 63
SWIDTH 500 0
DWIDTH 18 0
BBX 16 26 1 0
BITMAP
07E0
1FF8
3FFC
7FFE
7FFE
FE3F
FC1F
081F
001F
001F
007F
07FE
07FE
07FC
07F0
07E0
07E0
07E0
0000
0000
03C0
07E0
07E0
07E0
07E0
03C0
ENDCHAR
STARTCHAR 0040
ENCODING 64
SWIDTH 805 0
DWIDTH 29 0
BBX 25 26 2 0
BITMAP
003F8000
01FFE000
07FFF800
0FC0FC00
1F001E00
3E000F00
3C3E7700
78FF7780
79FFF380
7BFFE380
F3E3E380
F3C1E380
F781E380
F781E380
F781C300
F781C700
FFC7CE00
7BFFFE00
7BFFFC00
3DFFF000
3E71C000
1F001E00
0FE07C00
07FFF800
01FFE000
007F8000
ENDCHAR
STARTCHAR 0041
ENCODING 65
SWIDTH 611 0
DWIDTH 22 0
BBX 18 26 2 0
BITMAP
03F000
0FFC00
1FFF00
3FFF00
7FFF80
7E1F80
FC0FC0
FC0FC0
FC0FC0
FC0FC0
FC0FC0
FC0FC0
FDFFC0
FDFFC0
FDFFC0
FDFFC0
FDFFC0
FC0FC0
FC0FC0
FC0FC0
FC0FC0
FC0FC0
FC0FC0
FC0FC0
FC0FC0
FC0FC0
ENDCHAR
STARTCHAR 0042
ENCODING 66
SWIDTH 555 0
DWIDTH 20 0
BBX 17 26 2 0
BITMAP
07F000
1FFC00
3FFE00
7FFF00
7FFF80
7E3F80
FC0F80
F80F80
F80F80
F81F00
F9FF00
F9FE00
F9FE00
F9FF00
F9FF00
F81F80
F80F80
F80F80
F80F80
F80F80
F81F80
F9FF00
F9FF00
F9FE00
F9FC00
F9F800
ENDCHAR
STARTCHAR 0043
ENCODING 67
SWIDTH 500 0
DWIDTH 18 0
BBX 16 26 1 0
BITMAP
007F
01FF
07FF
0FFF
1FFF
3FE0
3F80
7F00
7E00
FE00
FC00
FC00
FC00
FC00
FC00
FC00
FE00
7E00
7F00
3F80
3FE0
1FFF
0FFF
07FF
03FF
007F
ENDCHAR
STARTCHAR 0044
ENCODING 68
SWIDTH 666 0
DWIDTH 24 0
BBX 21 26 2 0
BITMAP
FFF000
FFFC00
FFFF00
FFFF80
FFFFC0
F83FE0
F80FE0
F803F0
F801F0
F801F8
F800F8
F800F8
F800F8
F800F8
F800F8
F800F8
F801F8
F801F0
F803F0
F80FE0
F83FE0
F9FFC0
F9FF80
F9FF00
F9FC00
F9F000
ENDCHAR
STARTCHAR 0045
ENCODING 69
SWIDTH 500 0
DWIDTH 18 0
BBX 15 26 1 0
BITMAP
007E
03FE
07FE
0FFE
1FFE
3FC0
7F00
7E00
7C00
FC00
FFFE
FFFE
FFFE
FFFE
FFFE
FC00
FC00
7C00
7E00
7F00
3FC0
1FFE
1FFE
07FE
03FE
00FE
ENDCHAR
STARTCHAR 0046
ENCODING 70
SWIDTH 444 0
DWIDTH 16 0
BBX 13 26 2 0
BITMAP
0FF8
1FF8
3FF8
7FF8
7FF8
FC00
F800
F800
F800
F800
F800
FFF8
FFF8
FFF8
FFF8
FFF8
F800
F800
F800
F800
F800
F800
F800
F800
F800
F800
ENDCHAR
STARTCHAR 0047
ENCODING 71
SWIDTH 777 0
DWIDTH 28 0
BBX 26 26 1 0
BITMAP
007F8000
01FFF000
07FFFC00
0FFFFE00
1FFFFE00
3FE0FC00
3F803800
7F000000
7E000000
7E000000
FC07FFC0
FC07FFC0
FC07FFC0
FC07FFC0
FC07FFC0
FE000FC0
FE000FC0
7F001F80
7F003F80
3FC07F00
3FFBFF00
1FFFFE00
0FFFFC00
07FFF800
01FFE000
007F8000
ENDCHAR
STARTCHAR 0048
ENCODING 72
SWIDTH 611 0
DWIDTH 22 0
BBX 17 26 2 0
BITMAP
F80F80
F80F80
F80F80
F80F80
F80F80
F80F80
F80F80
F80F80
F80F80
F80F80
FFFF80
FFFF80
FFFF80
FFFF80
FFFF80
F80F80
F80F80
F80F80
F80F80
F80F80
F80F80
F80F80
F80F80
F80F80
F80F80
F80F80
ENDCHAR
STARTCHAR 0049
ENCODING 73
SWIDTH 277 0
DWIDTH 10 0
BBX 5 26 2 0
BITMAP
F8
F8
F8
F8
F8
F8
F8
F8
F8
F8
F8
F8
F8
F8
F8
F8
F8
F8
F8
F8
F8
F8
F8
F8
F8
F8
ENDCHAR
STARTCHAR 004A
ENCODING 74
SWIDTH 333 0
DWIDTH 12 0
BBX 9 26 1 0
BITMAP
0F80
0F80
0F80
0F80
0F80
0F80
0F80
0F80
0F80
0F80
0F80
0F80
0F80
0F80
0F80
0F80
0F80
0F80
0F80
1F80
FF80
FF00
FF00
FE00
FC00
F000
ENDCHAR
STARTCHAR 004B
ENCODING 75
SWIDTH 555 0
DWIDTH 20 0
BBX 17 26 2 0
BITMAP
F81F80
F81F00
F81F00
F83F00
F83E00
F87E00
F87C00
F87C00
F8FC00
F9F800
FFF000
FFF000
FFFC00
FFFE00
FFFF00
F83F00
F81F00
F81F00
F81F00
F81F00
F81F00
F81F00
F81F00
F81F00
F81F00
F81F00
ENDCHAR
STARTCHAR 004C
ENCODING 76
SWIDTH 388 0
DWIDTH 14 0
BBX 12 26 2 0
BITMAP
F800
F800
F800
F800
F800
F800
F800
F800
F800
F800
F800
F800
F800
F800
F800
F800
F800
F800
F800
F800
FF00
FFF0
7FF0
7FF0
3FF0
0FF0
ENDCHAR
STARTCHAR 004D
ENCODING 77
SWIDTH 833 0
DWIDTH 30 0
BBX 28 26 1 0
BITMAP
07801E00
1FC03F80
1FE07F80
1FE07F80
3FE07FC0
3FF0FFC0
3FF0FFC0
3EF0F7C0
3EF0F7C0
3EF9F7C0
3EF9F7C0
7EF9E7C0
7E79E7E0
7E79E7E0
7C7FE7E0
7C7FC3E0
7C3FC3E0
7C3FC3E0
7C3FC3E0
7C3F83E0
FC1F83F0
FC1F83F0
FC1F83F0
FC1F03F0
F81F03F0
F80F03F0
ENDCHAR
STARTCHAR 004E
ENCODING 78
SWIDTH 666 0
DWIDTH 24 0
BBX 20 26 2 0
BITMAP
3C01F0
7E01F0
FF01F0
FF01F0
FF81F0
FF81F0
FFC1F0
FFC1F0
FBE1F0
FBE1F0
F9F1F0
F9F1F0
F8F9F0
F8F9F0
F87DF0
F87DF0
F83FF0
F83FF0
F81FF0
F81FF0
F80FF0
F80FF0
F807F0
F807F0
F803F0
F801E0
ENDCHAR
STARTCHAR 004F
ENCODING 79
SWIDTH 777 0
DWIDTH 28 0
BBX 26 26 1 0
BITMAP
007F8000
01FFE000
07FFF800
0FFFFC00
1FFFFE00
3FE1FF00
3F807F00
7E001F80
7C000F80
7C000FC0
F80007C0
F80007C0
F80007C0
F80007C0
F80007C0
F80007C0
FC000FC0
7C000F80
7E001F80
3F803F00
3FE1FF00
1FFFFE00
0FFFFC00
07FFF800
01FFE000
007F8000
ENDCHAR
STARTCHAR 0050
ENCODING 80
SWIDTH 555 0
DWIDTH 20 0
BBX 17 26 2 0
BITMAP
03F000
0FFC00
3FFE00
3FFF00
7FFF00
7E3F80
FC1F80
F80F80
F80F80
F80F80
F80F80
F83F80
F9FF00
F9FF00
F9FE00
F9FC00
F9E000
F80000
F80000
F80000
F80000
F80000
F80000
F80000
F80000
F80000
ENDCHAR
STARTCHAR 0051
ENCODING 81
SWIDTH 777 0
DWIDTH 28 0
BBX 26 30 1 -4
BITMAP
003F8000
01FFE000
07FFF800
0FFFFC00
1FFFFE00
3FE1FF00
3F807F80
7E001F80
7C000F80
7C000FC0
F80007C0
F80007C0
F80007C0
F80007C0
F80007C0
FC0007C0
FC1F0FC0
7E1F1F80
7F1F1F80
7F9F7F00
3F9FFF00
1F9FFE00
0F9FFC00
079FF800
039FF000
009FC000
001F0000
001F0000
001F0000
001F0000
ENDCHAR
STARTCHAR 0052
ENCODING 82
SWIDTH 555 0
DWIDTH 20 0
BBX 16 26 2 0
BITMAP
07E0
1FF8
3FFC
7FFE
7FFE
FE7F
F81F
F81F
F81F
F81F
F83E
FBFE
FBF8
FBFC
FBFE
FBFF
F83F
F81F
F81F
F81F
F81F
F81F
F81F
F81F
F81F
F81F
ENDCHAR
STARTCHAR 0053
ENCODING 83
SWIDTH 500 0
DWIDTH 18 0
BBX 16 26 1 0
BITMAP
0FFF
3FFF
7FFF
7FFF
FFFF
FC00
FC00
FC00
FE00
7F80
7FC0
3FE0
1FF8
0FFC
07FE
01FE
00FF
007F
003F
003F
007F
FFFE
FFFE
FFFC
FFF8
FFF0
ENDCHAR
STARTCHAR 0054
ENCODING 84
SWIDTH 444 0
DWIDTH 16 0
BBX 15 26 0 0
BITMAP
FFFE
FFFE
FFFE
FFFE
FFFE
07C0
07C0
07C0
07C0
07C0
07C0
07C0
07C0
07C0
07C0
07C0
07C0
07C0
07C0
07C0
07C0
07C0
07C0
07C0
07C0
07C0
ENDCHAR
STARTCHAR 0055
ENCODING 85
SWIDTH 611 0
DWIDTH 22 0
BBX 17 26 2 0
BITMAP
F80F80
F80F80
F80F80
F80F80
F80F80
F80F80
F80F80
F80F80
F80F80
F80F80
F80F80
F80F80
F80F80
F80F80
F80F80
F80F80
F80F80
F80F80
F80F80
FC1F80
FE3F80
7FFF00
7FFF00
3FFE00
1FFC00
07F000
ENDCHAR
STARTCHAR 0056
ENCODING 86
SWIDTH 555 0
DWIDTH 20 0
BBX 21 26 0 0
BITMAP
FC01F8
FC01F8
7C01F0
7E03F0
7E03F0
7E03F0
3E03E0
3F07E0
3F07E0
3F07C0
1F07C0
1F0FC0
1F8FC0
1F8F80
1F8F80
0F9F80
0FDF80
0FDF00
0FDF00
07FF00
07FF00
07FE00
07FE00
03FE00
01FC00
00F800
ENDCHAR
STARTCHAR 0057
ENCODING 87
SWIDTH 888 0
DWIDTH 32 0
BBX 27 26 2 0
BITMAP
F81F03E0
F81F03E0
F81F03E0
F81F03E0
F81F03E0
F81F03E0
F81F03E0
F81F03E0
F81F03E0
F81F03E0
F81F03E0
F81F03E0
F81F03E0
F81F03E0
F81F03E0
F81F03E0
F81F03E0
F81F03E0
F81F03E0
F81F03E0
FC3F87E0
FFFFFFE0
7FFFFFC0
3FFBFFC0
1FF1FF00
0FC07E00
ENDCHAR
STARTCHAR 0058
ENCODING 88
SWIDTH 500 0
DWIDTH 18 0
BBX 17 26 0 0
BITMAP
E00380
F80F80
FC1F80
FE3F80
FF7F80
3F7E00
1FFC00
0FF800
07F000
07F000
03E000
03E000
03E000
03E000
03E000
03E000
07F000
07F000
0FF800
1FFC00
3F7F00
FF7F80
FE3F80
FC1F80
F80F80
E00380
ENDCHAR
STARTCHAR 0059
ENCODING 89
SWIDTH 555 0
DWIDTH 20 0
BBX 16 26 2 0
BITMAP
F81F
F81F
F81F
F81F
F81F
F81F
F81F
F81F
F81F
F81F
FC3F
FFFF
7FFE
7FFE
3FFC
1FF0
07C0
07C0
07C0
07C0
07C0
07C0
07C0
07C0
07C0
07C0
ENDCHAR
STARTCHAR 005A
ENCODING 90
SWIDTH 500 0
DWIDTH 18 0
BBX 17 26 0 0
BITMAP
7FFF00
7FFF80
7FFF80
7FFF80
7FFF80
003F00
007F00
00FE00
00FC00
01FC00
01F800
03F800
07F000
07E000
0FE000
0FC000
1F8000
3F8000
3F0000
7F0000
7E0000
FFFF80
FFFF80
FFFF80
FFFF80
7FFF80
ENDCHAR
STARTCHAR 005B
ENCODING 91
SWIDTH 333 0
DWIDTH 12 0
BBX 7 34 3 -8
BITMAP
FE
FE
FE
F0
F0
F0
F0
F0
F0
F0
F0
F0
F0
F0
F0
F0
F0
F0
F0
F0
F0
F0
F0
F0
F0
F0
F0
F0
F0
F0
F0
FE
FE
FE
ENDCHAR
STARTCHAR 005C
ENCODING 92
SWIDTH 277 0
DWIDTH 10 0
BBX 15 26 -3 0
BITMAP
F000
7800
7800
7800
3C00
3C00
1E00
1E00
0F00
0F00
0F00
0780
0780
03C0
03C0
01E0
01E0
01E0
00F0
00F0
0078
0078
003C
003C
003C
001E
ENDCHAR
STARTCHAR 005D
ENCODING 93
SWIDTH 333 0
DWIDTH 12 0
BBX 7 34 3 -8
BITMAP
FE
FE
FE
1E
1E
1E
1E
1E
1E
1E
1E
1E
1E
1E
1E
1E
1E
1E
1E
1E
1E
1E
1E
1E
1E
1E
1E
1E
1E
1E
1E
FE
FE
FE
ENDCHAR
STARTCHAR 005E
ENCODING 94
SWIDTH 611 0
DWIDTH 22 0
BBX 16 14 4 12
BITMAP
03C0
07C0
07E0
0FE0
0FF0
1EF0
1E78
3C78
3C38
783C
781C
701E
F01E
F00F
ENDCHAR
STARTCHAR 005F
ENCODING 95
SWIDTH 500 0
DWIDTH 18 0
BBX 18 2 0 -5
BITMAP
FFFFC0
FFFFC0
ENDCHAR
STARTCHAR 0060
ENCODING 96
SWIDTH 222 0
DWIDTH 8 0
BBX 8 5 -2 20
BITMAP
FC
7E
1E
0F
07
ENDCHAR
STARTCHAR 0061
ENCODING 97
SWIDTH 555 0
DWIDTH 20 0
BBX 18 18 1 0
BITMAP
03F000
0FFE00
1FFF00
3FFF80
7FFF80
7E0FC0
FC07C0
F807C0
F807C0
F807C0
F807C0
FC07C0
7E07C0
7FF7C0
3FF7C0
3FF7C0
0FF7C0
07F7C0
ENDCHAR
STARTCHAR 0062
ENCODING 98
SWIDTH 555 0
DWIDTH 20 0
BBX 17 26 2 0
BITMAP
F80000
F80000
F80000
F80000
F80000
F80000
F80000
F80000
FBF000
FBFC00
FBFE00
FBFE00
FBFF00
F83F00
F81F80
F80F80
F80F80
F80F80
F80F80
FC1F80
7E3F00
7FFF00
3FFE00
1FFE00
0FF800
03E000
ENDCHAR
STARTCHAR 0063
ENCODING 99
SWIDTH 388 0
DWIDTH 14 0
BBX 12 18 1 0
BITMAP
03F0
0FF0
3FF0
3FF0
7FF0
7E00
FC00
F800
F800
F800
F800
FC00
7E00
7FF0
7FF0
3FF0
1FF0
03F0
ENDCHAR
STARTCHAR 0064
ENCODING 100
SWIDTH 555 0
DWIDTH 20 0
BBX 18 26 1 0
BITMAP
0007C0
0007C0
0007C0
0007C0
0007C0
0007C0
0007C0
0007C0
03E7C0
0FF7C0
1FF7C0
3FF7C0
7FF7C0
7E07C0
FC07C0
F807C0
F807C0
F807C0
F807C0
FC0FC0
7E1F80
7FFF80
3FFF00
1FFE00
0FFC00
03F000
ENDCHAR
STARTCHAR 0065
ENCODING 101
SWIDTH 555 0
DWIDTH 20 0
BBX 19 18 1 0
BITMAP
03F800
0FFE00
1FFF00
3FFF80
7FFF80
7E1F80
FC3F00
F8FE00
F9F800
F9F000
F8C3E0
FC07C0
7E0FC0
7FFF80
3FFF80
1FFF00
0FFE00
03F000
ENDCHAR
STARTCHAR 0066
ENCODING 102
SWIDTH 277 0
DWIDTH 10 0
BBX 9 26 1 0
BITMAP
0F80
3F80
7F80
7F80
FF80
F800
F800
F800
FF80
FF80
FF80
FF80
FF80
F800
F800
F800
F800
F800
F800
F800
F800
F800
F800
F800
F800
F800
ENDCHAR
STARTCHAR 0067
ENCODING 103
SWIDTH 555 0
DWIDTH 20 0
BBX 18 26 1 -8
BITMAP
03F000
0FFC00
1FFE00
3FFF00
7FFF80
7E1FC0
FC0FC0
F807C0
F807C0
F807C0
F807C0
FC07C0
7E07C0
7FF7C0
3FF7C0
3FF7C0
0FF7C0
03F7C0
0007C0
0007C0
100FC0
1FFF80
1FFF80
1FFF00
1FFE00
0FF000
ENDCHAR
STARTCHAR 0068
ENCODING 104
SWIDTH 500 0
DWIDTH 18 0
BBX 15 26 2 0
BITMAP
F800
F800
F800
F800
F800
F800
F800
F800
F9F0
FFF8
FFFC
FFFE
FFFE
FC7E
F83E
F83E
F83E
F83E
F83E
F83E
F83E
F83E
F83E
F83E
F83E
F83E
ENDCHAR
STARTCHAR 0069
ENCODING 105
SWIDTH 222 0
DWIDTH 8 0
BBX 5 26 1 0
BITMAP
70
F8
F8
F8
F8
70
00
00
F8
F8
F8
F8
F8
F8
F8
F8
F8
F8
F8
F8
F8
F8
F8
F8
F8
F8
ENDCHAR
STARTCHAR 006A
ENCODING 106
SWIDTH 222 0
DWIDTH 8 0
BBX 8 34 -2 -8
BITMAP
0E
1F
1F
1F
1F
0E
00
00
1F
1F
1F
1F
1F
1F
1F
1F
1F
1F
1F
1F
1F
1F
1F
1F
1F
1F
1F
1F
1F
FF
FF
FE
FC
F8
ENDCHAR
STARTCHAR 006B
ENCODING 107
SWIDTH 500 0
DWIDTH 18 0
BBX 15 26 2 0
BITMAP
F800
F800
F800
F800
F800
F800
F800
F800
F83E
F87E
F87C
F8FC
F8F8
F9F8
FFF0
FFE0
FFF8
FFFC
FFFE
F87E
F83E
F83E
F83E
F83E
F83E
F83E
ENDCHAR
STARTCHAR 006C
ENCODING 108
SWIDTH 222 0
DWIDTH 8 0
BBX 5 26 2 0
BITMAP
F8
F8
F8
F8
F8
F8
F8
F8
F8
F8
F8
F8
F8
F8
F8
F8
F8
F8
F8
F8
F8
F8
F8
F8
F8
F8
ENDCHAR
STARTCHAR 006D
ENCODING 109
SWIDTH 777 0
DWIDTH 28 0
BBX 24 18 2 0
BITMAP
0FC1F0
3FE3FC
7FF7FE
FFFFFF
FFFFFF
FC7F1F
F83E1F
F83E1F
F83E1F
F83E1F
F83E1F
F83E1F
F83E1F
F83E1F
F83E1F
F83E1F
F83E1F
F83E1F
ENDCHAR
STARTCHAR 006E
ENCODING 110
SWIDTH 500 0
DWIDTH 18 0
BBX 15 18 2 0
BITMAP
0FE0
3FF8
7FFC
7FFE
FFFE
FC7E
F83E
F83E
F83E
F83E
F83E
F83E
F83E
F83E
F83E
F83E
F83E
F83E
ENDCHAR
STARTCHAR 006F
ENCODING 111
SWIDTH 555 0
DWIDTH 20 0
BBX 18 18 1 0
BITMAP
03F000
0FFC00
1FFE00
3FFF00
7FFF80
7E1F80
FC0FC0
F807C0
F807C0
F807C0
F807C0
FC0FC0
7E0F80
7FFF80
3FFF00
1FFE00
0FFC00
03F000
ENDCHAR
STARTCHAR 0070
ENCODING 112
SWIDTH 555 0
DWIDTH 20 0
BBX 17 26 2 -8
BITMAP
03F000
0FF800
1FFE00
3FFE00
7FFF00
7E3F00
FC1F80
F80F80
F80F80
F80F80
F80F80
F81F80
F83F00
FBFF00
FBFE00
FBFE00
FBF800
FBF000
F80000
F80000
F80000
F80000
F80000
F80000
F80000
F80000
ENDCHAR
STARTCHAR 0071
ENCODING 113
SWIDTH 555 0
DWIDTH 20 0
BBX 18 26 1 -8
BITMAP
03F000
0FFC00
1FFE00
3FFF00
7FFF80
7E1F80
FC0FC0
F807C0
F807C0
F807C0
F807C0
FC07C0
7E07C0
7FF7C0
3FF7C0
1FF7C0
0FF7C0
03E7C0
0007C0
0007C0
0007C0
0007C0
0007C0
0007C0
0007C0
0007C0
ENDCHAR
STARTCHAR 0072
ENCODING 114
SWIDTH 333 0
DWIDTH 12 0
BBX 9 18 2 0
BITMAP
F980
FB80
FF80
FF80
FF80
FE00
FC00
F800
F800
F800
F800
F800
F800
F800
F800
F800
F800
F800
ENDCHAR
STARTCHAR 0073
ENCODING 115
SWIDTH 388 0
DWIDTH 14 0
BBX 12 18 1 0
BITMAP
1FF0
3FF0
7FF0
FFF0
FC00
F800
FC00
7F00
3FC0
1FE0
07F0
03F0
01F0
03F0
FFF0
FFE0
FFC0
FF80
ENDCHAR
STARTCHAR 0074
ENCODING 116
SWIDTH 277 0
DWIDTH 10 0
BBX 8 23 1 0
BITMAP
F8
F8
F8
F8
F8
FF
FF
FF
FF
FF
F8
F8
F8
F8
F8
F8
F8
F8
FF
FF
7F
7F
1F
ENDCHAR
STARTCHAR 0075
ENCODING 117
SWIDTH 500 0
DWIDTH 18 0
BBX 15 18 2 0
BITMAP
F83E
F83E
F83E
F83E
F83E
F83E
F83E
F83E
F83E
F83E
F83E
F83E
FC7E
FFFE
FFFE
7FFC
3FF8
0FE0
ENDCHAR
STARTCHAR 0076
ENCODING 118
SWIDTH 444 0
DWIDTH 16 0
BBX 16 18 0 0
BITMAP
F81F
FC1F
7C3E
7C3E
7C3E
3E3E
3E7C
3E7C
3E7C
1F78
1FF8
1FF8
0FF0
0FF0
0FF0
07E0
07E0
03C0
ENDCHAR
STARTCHAR 0077
ENCODING 119
SWIDTH 777 0
DWIDTH 28 0
BBX 24 18 2 0
BITMAP
F83E1F
F83E1F
F83E1F
F83E1F
F83E1F
F83E1F
F83E1F
F83E1F
F83E1F
F83E1F
F83E1F
F83E1F
FC7E1F
FFFFFF
7FFFFE
7FF7FE
3FE3FC
0F81F0
ENDCHAR
STARTCHAR 0078
ENCODING 120
SWIDTH 388 0
DWIDTH 14 0
BBX 14 18 0 0
BITMAP
F03C
F87C
FCFC
FFFC
3FF8
0FC0
0FC0
0780
0780
0780
0780
07C0
0FC0
3FF8
FFFC
FCFC
F87C
F03C
ENDCHAR
STARTCHAR 0079
ENCODING 121
SWIDTH 500 0
DWIDTH 18 0
BBX 15 26 2 -8
BITMAP
F83E
F83E
F83E
F83E
F83E
F83E
F83E
F83E
F83E
F83E
F83E
F83E
F83E
FEFE
7FFC
7FFC
3FF8
1FF0
07C0
07C0
07C0
07C0
07C0
07C0
07C0
07C0
ENDCHAR
STARTCHAR 007A
ENCODING 122
SWIDTH 444 0
DWIDTH 16 0
BBX 14 18 0 0
BITMAP
7FF8
7FFC
7FFC
7FFC
7FFC
01F8
03F0
07F0
07E0
0FC0
1F80
3F00
7E00
FFFC
FFFC
FFFC
FFFC
7FFC
ENDCHAR
STARTCHAR 007B
ENCODING 123
SWIDTH 444 0
DWIDTH 16 0
BBX 12 34 0 -8
BITMAP
01F0
03F0
07F0
0F80
0F00
0F00
0F00
0F00
0F00
0F00
0F00
0F00
0F00
0F00
0F00
3F00
FE00
F000
FE00
3F00
0F00
0F00
0F00
0F00
0F00
0F00
0F00
0F00
0F00
0F00
0F80
07F0
07F0
01F0
ENDCHAR
STARTCHAR 007C
ENCODING 124
SWIDTH 222 0
DWIDTH 8 0
BBX 4 26 2 0
BITMAP
F0
F0
F0
F0
F0
F0
F0
F0
F0
F0
F0
F0
F0
F0
F0
F0
F0
F0
F0
F0
F0
F0
F0
F0
F0
F0
ENDCHAR
STARTCHAR 007D
ENCODING 125
SWIDTH 444 0
DWIDTH 16 0
BBX 12 34 5 -8
BITMAP
F800
FE00
FE00
1F00
0F00
0F00
0F00
0F00
0F00
0F00
0F00
0F00
0F00
0F00
0F80
0FC0
07F0
00F0
07F0
0FC0
0F00
0F00
0F00
0F00
0F00
0F00
0F00
0F00
0F00
0F00
1F00
FE00
FE00
F800
ENDCHAR
STARTCHAR 007E
ENCODING 126
SWIDTH 611 0
DWIDTH 22 0
BBX 17 7 2 6
BITMAP
3E0100
7F8300
FFF700
FFFF80
E1FF00
40FE00
403C00
ENDCHAR
STARTCHAR 00A1
ENCODING 161
SWIDTH 277 0
DWIDTH 10 0
BBX 6 26 2 -8
BITMAP
78
FC
FC
FC
FC
78
00
FC
FC
FC
FC
FC
FC
FC
FC
FC
FC
FC
FC
FC
FC
FC
FC
FC
FC
FC
ENDCHAR
STARTCHAR 00A2
ENCODING 162
SWIDTH 555 0
DWIDTH 20 0
BBX 11 26 2 0
BITMAP
0380
0380
0380
0380
0380
0FE0
1FE0
3FE0
7FE0
7C00
F800
F000
F000
F000
F000
F800
7C00
7FE0
3FE0
1FE0
0FE0
0380
0380
0380
0380
0380
ENDCHAR
STARTCHAR 00A3
ENCODING 163
SWIDTH 555 0
DWIDTH 20 0
BBX 20 26 1 0
BITMAP
00FE00
03FE00
07FE00
07FE00
0FFE00
0FC000
0F8000
0F8000
0F8000
0F8000
7FF000
7FF000
7FF000
7FF000
7FF000
0F81F0
0F81F0
0F81F0
0F81F0
1F83F0
3F83E0
FFFFE0
FFFFC0
FFFF80
FFFF00
FFFC00
ENDCHAR
STARTCHAR 00A4
ENCODING 164
SWIDTH 555 0
DWIDTH 20 0
BBX 18 18 1 4
BITMAP
43F080
FFFFC0
FFFFC0
7FFF80
7E1F80
780780
F807C0
F003C0
F003C0
F003C0
F003C0
F807C0
780780
7E1F80
7FFF80
FFFFC0
EFFDC0
43F080
ENDCHAR
STARTCHAR 00A5
ENCODING 165
SWIDTH 555 0
DWIDTH 20 0
BBX 16 26 2 0
BITMAP
E007
F81F
FC3F
FC7F
FEFF
7EFC
1FF0
0FE0
07C0
7FFE
7FFE
7FFE
7FFE
07C0
07C0
7FFE
7FFE
7FFE
7FFE
07C0
07C0
07C0
07C0
07C0
07C0
07C0
ENDCHAR
STARTCHAR 00A6
ENCODING 166
SWIDTH 222 0
DWIDTH 8 0
BBX 4 26 2 0
BITMAP
F0
F0
F0
F0
F0
F0
F0
F0
F0
F0
00
00
00
00
00
00
F0
F0
F0
F0
F0
F0
F0
F0
F0
F0
ENDCHAR
STARTCHAR 00A7
ENCODING 167
SWIDTH 500 0
DWIDTH 18 0
BBX 15 30 2 -4
BITMAP
07C0
1FF0
3FF8
3E70
3C20
3C00
1E00
1F00
3F80
7FC0
FFE0
F1F0
F0F8
F87C
7C3C
7E3E
3F1E
1F9E
1FFE
0FFC
07F0
03F0
01F0
00F8
0078
1878
3C78
3FF8
1FF0
07C0
ENDCHAR
STARTCHAR 00A8
ENCODING 168
SWIDTH 222 0
DWIDTH 8 0
BBX 12 5 -2 20
BITMAP
70E0
F9F0
F9F0
F9F0
70E0
ENDCHAR
STARTCHAR 00A9
ENCODING 169
SWIDTH 805 0
DWIDTH 29 0
BBX 27 26 1 0
BITMAP
003F8000
01FFF000
07FFFC00
0FE0FE00
1F803F00
3E1F0F80
3C3FC780
7C7FE7C0
78F8E3C0
F8F073E0
F1E071E0
F1E001E0
F1E001E0
F1E001E0
F1E001E0
F1E071E0
F8F073E0
78F8E3C0
7C7FE3C0
3C3FC780
3E1F0F80
1F801F00
0FE0FE00
07FFFC00
01FFF000
003F8000
ENDCHAR
STARTCHAR 00AA
ENCODING 170
SWIDTH 333 0
DWIDTH 12 0
BBX 11 11 0 15
BITMAP
1F00
3FC0
7FC0
F1E0
E0E0
E0E0
E0E0
F0E0
7EE0
3EE0
1EE0
ENDCHAR
STARTCHAR 00AB
ENCODING 171
SWIDTH 500 0
DWIDTH 18 0
BBX 15 11 2 3
BITMAP
0F1E
1E3C
1C78
3870
78E0
F1E0
78E0
3870
1C78
1E3C
0F1E
ENDCHAR
STARTCHAR 00AC
ENCODING 172
SWIDTH 611 0
DWIDTH 22 0
BBX 18 12 2 3
BITMAP
FFFFC0
FFFFC0
FFFFC0
FFFFC0
0003C0
0003C0
0003C0
0003C0
0003C0
0003C0
0003C0
0003C0
ENDCHAR
STARTCHAR 00AE
ENCODING 174
SWIDTH 805 0
DWIDTH 29 0
BBX 27 26 1 0
BITMAP
003F8000
01FFF000
07FFFC00
0FE0FE00
1F803F00
3EFF0F80
3CFFC780
7CFFE7C0
78E0E3C0
F8E0E3E0
F0E0E1E0
F0FFE1E0
F0FFC1E0
F0FF81E0
F0E701E0
F0E701E0
F8E383E0
78E383C0
7CE1C3C0
3CE0E780
3E000F80
1F801F00
0FE0FE00
07FFFC00
01FFF000
003F8000
ENDCHAR
STARTCHAR 00AF
ENCODING 175
SWIDTH 222 0
DWIDTH 8 0
BBX 12 3 -2 22
BITMAP
FFF0
FFF0
FFF0
ENDCHAR
STARTCHAR 00B0
ENCODING 176
SWIDTH 388 0
DWIDTH 14 0
BBX 11 11 2 15
BITMAP
1F00
3F80
7FC0
E1E0
E0E0
E0E0
E0E0
71C0
7FC0
3F80
0400
ENDCHAR
STARTCHAR 00B1
ENCODING 177
SWIDTH 611 0
DWIDTH 22 0
BBX 18 18 2 0
BITMAP
01E000
01E000
01E000
01E000
FFFFC0
FFFFC0
FFFFC0
FFFFC0
01E000
01E000
01E000
01E000
01E000
000000
FFFFC0
FFFFC0
FFFFC0
FFFFC0
ENDCHAR
STARTCHAR 00B2
ENCODING 178
SWIDTH 333 0
DWIDTH 12 0
BBX 12 15 0 11
BITMAP
1F80
3FE0
7FE0
F9F0
F0F0
F0F0
F1E0
63E0
0F80
1F00
3C00
7800
FFF0
FFF0
7FF0
ENDCHAR
STARTCHAR 00B3
ENCODING 179
SWIDTH 333 0
DWIDTH 12 0
BBX 10 15 2 11
BITMAP
FF80
FFC0
FFC0
07C0
0F80
1E00
3C00
7F80
7F80
03C0
03C0
03C0
FFC0
FF80
FE00
ENDCHAR
STARTCHAR 00B4
ENCODING 180
SWIDTH 222 0
DWIDTH 8 0
BBX 7 5 2 20
BITMAP
3E
7C
78
F0
E0
ENDCHAR
STARTCHAR 00B5
ENCODING 181
SWIDTH 500 0
DWIDTH 18 0
BBX 15 26 2 -8
BITMAP
F83E
F83E
F83E
F83E
F83E
F83E
F83E
F83E
F83E
F83E
F83E
F83E
FC7E
FFFE
FFFE
FFFC
FFF8
FFE0
F800
F800
F800
F800
F800
F800
F800
F800
ENDCHAR
STARTCHAR 00B6
ENCODING 182
SWIDTH 611 0
DWIDTH 22 0
BBX 19 33 1 -7
BITMAP
07FFE0
3FFFE0
7FFFE0
7FF1E0
FFF1E0
FFF1E0
FFF1E0
FFF1E0
FFF1E0
7FF1E0
7FF1E0
3FF1E0
0FF1E0
00F1E0
00F1E0
00F1E0
00F1E0
00F1E0
00F1E0
00F1E0
00F1E0
00F1E0
00F1E0
00F1E0
00F1E0
00F1E0
00F1E0
00F1E0
00F1E0
00F1E0
00F1E0
00F1E0
00F1E0
ENDCHAR
STARTCHAR 00B7
ENCODING 183
SWIDTH 277 0
DWIDTH 10 0
BBX 6 6 2 6
BITMAP
78
FC
FC
FC
FC
78
ENDCHAR
STARTCHAR 00B8
ENCODING 184
SWIDTH 222 0
DWIDTH 8 0
BBX 8 9 0 -8
BITMAP
18
30
3C
7F
07
07
87
FE
7C
ENDCHAR
STARTCHAR 00B9
ENCODING 185
SWIDTH 333 0
DWIDTH 12 0
BBX 6 15 2 11
BITMAP
FC
FC
FC
3C
3C
3C
3C
3C
3C
3C
3C
3C
3C
3C
3C
ENDCHAR
STARTCHAR 00BA
ENCODING 186
SWIDTH 333 0
DWIDTH 12 0
BBX 12 11 0 15
BITMAP
1F80
3FC0
7FE0
F0F0
E070
E070
E070
F0F0
7FE0
3FC0
1F80
ENDCHAR
STARTCHAR 00BB
ENCODING 187
SWIDTH 500 0
DWIDTH 18 0
BBX 15 11 2 3
BITMAP
F9F8
7EF8
3FFC
1FFC
0FFE
07FE
0FFE
1FFC
3FFC
7EF8
F9F8
ENDCHAR
STARTCHAR 00BC
ENCODING 188
SWIDTH 833 0
DWIDTH 30 0
BBX 25 26 2 0
BITMAP
FC003800
FC007000
FC00F000
3C00E000
3C01E000
3C01C000
3C03C000
3C038000
3C070000
3C0F0000
3C0E1E00
3C1E1D00
3C1C3B00
3C3C7B00
3C387700
0070F700
00F0E700
00E1C700
01E3C700
01C38700
03C3FF80
0383FF80
0701FF80
0F000700
0E000700
1E000700
ENDCHAR
STARTCHAR 00BD
ENCODING 189
SWIDTH 833 0
DWIDTH 30 0
BBX 27 26 2 0
BITMAP
FC003000
FC007000
FC006000
3C00E000
3C01C000
3C01C000
3C038000
3C030000
3C070000
3C0E0000
3C0E1F00
3C1C7FC0
3C1C7FC0
3C38F1E0
3C78F1E0
0070F1E0
00E0F3E0
00E067C0
01C02F80
03C01F00
03803E00
07807C00
07007000
0E00FFE0
1E00FFE0
1C007FE0
ENDCHAR
STARTCHAR 00BE
ENCODING 190
SWIDTH 833 0
DWIDTH 30 0
BBX 25 26 2 0
BITMAP
FF801C00
FFC03800
FFC03800
07C07000
0F807000
1E00E000
3C01E000
7F81C000
7F83C000
03C38000
03C79C00
03C71D00
FFCE3B00
FF8E7B00
FE1C7700
001CE700
0038E700
0039C700
0073C700
0073FF80
00E3FF80
00E1FF80
01C00700
01C00700
03800700
03800700
ENDCHAR
STARTCHAR 00BF
ENCODING 191
SWIDTH 500 0
DWIDTH 18 0
BBX 16 26 1 -8
BITMAP
03C0
07E0
07E0
07E0
07E0
03C0
0000
0000
07C0
07C0
07C0
0FC0
3FC0
7FC0
7FC0
FC00
F800
F810
F81E
F83F
FE7F
7FFE
7FFE
3FFC
1FF8
07E0
ENDCHAR
STARTCHAR 00C0
ENCODING 192
SWIDTH 611 0
DWIDTH 22 0
BBX 18 32 2 0
BITMAP
0F8000
07C000
03C000
01E000
00F000
000000
03F000
0FFC00
1FFF00
3FFF00
7FFF80
7E1F80
FC0FC0
FC0FC0
FC0FC0
FC0FC0
FC0FC0
FC0FC0
FDFFC0
FDFFC0
FDFFC0
FDFFC0
FDFFC0
FC0FC0
FC0FC0
FC0FC0
FC0FC0
FC0FC0
FC0FC0
FC0FC0
FC0FC0
FC0FC0
ENDCHAR
STARTCHAR 00C1
ENCODING 193
SWIDTH 611 0
DWIDTH 22 0
BBX 18 32 2 0
BITMAP
00FC00
00F800
01F000
01E000
038000
000000
03F000
0FFC00
1FFF00
3FFF00
7FFF80
7E1F80
FC0FC0
FC0FC0
FC0FC0
FC0FC0
FC0FC0
FC0FC0
FFFFC0
FFFFC0
FFFFC0
FFFFC0
FFFFC0
FC0FC0
FC0FC0
FC0FC0
FC0FC0
FC0FC0
FC0FC0
FC0FC0
FC0FC0
FC0FC0
ENDCHAR
STARTCHAR 00C2
ENCODING 194
SWIDTH 611 0
DWIDTH 22 0
BBX 19 32 2 0
BITMAP
01F000
03F800
07BC00
0F1E00
1F1F00
000000
03F800
0FFE00
1FFF00
3FFF80
7FFFC0
7E1FC0
FC07E0
FC07E0
FC07E0
FC07E0
FC07E0
FC07E0
FDFFE0
FDFFE0
FDFFE0
FDFFE0
FDFFE0
FC07E0
FC07E0
FC07E0
FC07E0
FC07E0
FC07E0
FC07E0
FC07E0
FC07E0
ENDCHAR
STARTCHAR 00C3
ENCODING 195
SWIDTH 611 0
DWIDTH 22 0
BBX 19 33 2 0
BITMAP
078300
0FFF00
0FFF00
1CFE00
183C00
000000
000000
03F800
0FFE00
1FFF00
3FFF80
7FFFC0
7E1FC0
FC07E0
FC07E0
FC07E0
FC07E0
FC07E0
FC07E0
FDFFE0
FDFFE0
FDFFE0
FDFFE0
FDFFE0
FC07E0
FC07E0
FC07E0
FC07E0
FC07E0
FC07E0
FC07E0
FC07E0
FC07E0
ENDCHAR
STARTCHAR 00C4
ENCODING 196
SWIDTH 611 0
DWIDTH 22 0
BBX 18 32 2 0
BITMAP
0E1C00
1F3E00
1F3E00
1F3E00
0E1C00
000000
03F000
0FFC00
1FFF00
3FFF00
7FFF80
7E1F80
FC0FC0
FC0FC0
FC0FC0
FC0FC0
FC0FC0
FC0FC0
FDFFC0
FDFFC0
FDFFC0
FDFFC0
FDFFC0
FC0FC0
FC0FC0
FC0FC0
FC0FC0
FC0FC0
FC0FC0
FC0FC0
FC0FC0
FC0FC0
ENDCHAR
STARTCHAR 00C5
ENCODING 197
SWIDTH 611 0
DWIDTH 22 0
BBX 19 35 2 0
BITMAP
01E000
03F000
073800
061800
061800
073800
03F000
01E000
000000
03F800
0FFE00
1FFF00
3FFF80
7FFFC0
7E1FC0
FC07E0
FC07E0
FC07E0
FC07E0
FC07E0
FC07E0
FDFFE0
FDFFE0
FDFFE0
FDFFE0
FDFFE0
FC07E0
FC07E0
FC07E0
FC07E0
FC07E0
FC07E0
FC07E0
FC07E0
FC07E0
ENDCHAR
STARTCHAR 00C6
ENCODING 198
SWIDTH 888 0
DWIDTH 32 0
BBX 27 26 2 0
BITMAP
03F007E0
0FFC1FE0
3FFE7FE0
3FFF7FE0
7FFFFFE0
7E3FFC00
FC0FF000
F80FC000
F80FC000
F80F8000
F9FFFFE0
F9FFFFE0
F9FFFFE0
F9FFFFE0
F9FFFFE0
F80F8000
F80FC000
F80FC000
F80FE000
F80FF000
F80FFC00
F80FFFE0
F80FFFE0
F80FFFE0
F80FBFE0
F80F87E0
ENDCHAR
STARTCHAR 00C7
ENCODING 199
SWIDTH 500 0
DWIDTH 18 0
BBX 16 34 1 -8
BITMAP
007F
01FF
07FF
0FFF
1FFF
3FE0
3F80
7F00
7E00
FE00
FC00
FC00
FC00
FC00
FC00
FC00
FE00
7E00
7F00
3F80
3FE0
1FFF
0FFF
07FF
03FF
007F
0020
0078
00FE
000E
000E
010E
01FC
00F8
ENDCHAR
STARTCHAR 00C8
ENCODING 200
SWIDTH 500 0
DWIDTH 18 0
BBX 15 32 1 0
BITMAP
07C0
03E0
01E0
00F0
0078
0000
007E
03FE
07FE
0FFE
1FFE
3FC0
7F00
7E00
7C00
FC00
FFFE
FFFE
FFFE
FFFE
FFFE
FC00
FC00
7E00
7E00
7F00
3FC0
1FFE
1FFE
07FE
03FE
00FE
ENDCHAR
STARTCHAR 00C9
ENCODING 201
SWIDTH 500 0
DWIDTH 18 0
BBX 15 32 1 0
BITMAP
003E
007C
0078
00F0
01E0
0000
007E
03FE
07FE
0FFE
1FFE
3FC0
7F00
7E00
7C00
FC00
FFFE
FFFE
FFFE
FFFE
FFFE
FC00
FC00
7C00
7E00
7F00
3FC0
1FFE
1FFE
07FE
03FE
00FE
ENDCHAR
STARTCHAR 00CA
ENCODING 202
SWIDTH 500 0
DWIDTH 18 0
BBX 16 32 1 0
BITMAP
01F0
03F8
07BC
0F1E
1F1F
0000
007E
03FE
07FE
0FFE
1FFE
3FC0
7F00
7C00
7C00
F800
FFFE
FFFE
FFFE
FFFE
FFFE
F800
FC00
7C00
7E00
7F00
3FC0
1FFE
1FFE
07FE
03FE
00FE
ENDCHAR
STARTCHAR 00CB
ENCODING 203
SWIDTH 500 0
DWIDTH 18 0
BBX 15 32 1 0
BITMAP
070C
0F9E
0F9E
0F9E
070C
0000
007E
03FE
07FE
0FFE
1FFE
3FC0
7F00
7E00
7C00
FC00
FFFE
FFFE
FFFE
FFFE
FFFE
FC00
FC00
7E00
7E00
7F00
3FC0
1FFE
1FFE
07FE
03FE
00FE
ENDCHAR
STARTCHAR 00CC
ENCODING 204
SWIDTH 277 0
DWIDTH 10 0
BBX 8 32 0 0
BITMAP
F8
7C
3C
1E
0F
00
3F
3F
3F
3F
3F
3F
3F
3F
3F
3F
3F
3F
3F
3F
3F
3F
3F
3F
3F
3F
3F
3F
3F
3F
3F
3F
ENDCHAR
STARTCHAR 00CD
ENCODING 205
SWIDTH 277 0
DWIDTH 10 0
BBX 8 32 2 0
BITMAP
1F
3E
7C
78
F0
00
F8
F8
F8
F8
F8
F8
F8
F8
F8
F8
F8
F8
F8
F8
F8
F8
F8
F8
F8
F8
F8
F8
F8
F8
F8
F8
ENDCHAR
STARTCHAR 00CE
ENCODING 206
SWIDTH 277 0
DWIDTH 10 0
BBX 13 32 -1 0
BITMAP
0F80
1FC0
3DE0
7CF0
F8F8
0000
0F80
0F80
0F80
0F80
0F80
0F80
0F80
0F80
0F80
0F80
0F80
0F80
0F80
0F80
0F80
0F80
0F80
0F80
0F80
0F80
0F80
0F80
0F80
0F80
0F80
0F80
ENDCHAR
STARTCHAR 00CF
ENCODING 207
SWIDTH 277 0
DWIDTH 10 0
BBX 12 32 -1 0
BITMAP
70E0
F9F0
F9F0
F9F0
70E0
0000
1F00
1F00
1F00
1F00
1F00
1F00
1F00
1F00
1F00
1F00
1F00
1F00
1F00
1F00
1F00
1F00
1F00
1F00
1F00
1F00
1F00
1F00
1F00
1F00
1F00
1F00
ENDCHAR
STARTCHAR 00D0
ENCODING 208
SWIDTH 666 0
DWIDTH 24 0
BBX 23 26 0 0
BITMAP
3FFC00
3FFF00
3FFFC0
3FFFE0
3FFFF0
3E0FF8
3E03F8
3E00FC
3E007C
3E007E
FFF03E
FFF03E
FFF03E
FFF03E
FFF03E
3E003E
3E007E
3E007C
3E00FC
3E01FC
3E07F8
3E7FF0
3E7FE0
3E7FC0
3E7F80
3E7C00
ENDCHAR
STARTCHAR 00D1
ENCODING 209
SWIDTH 666 0
DWIDTH 24 0
BBX 19 33 2 0
BITMAP
078300
0FFF00
0FFE00
1C7E00
1C1C00
000000
000000
3803E0
7E03E0
FE03E0
FF03E0
FF03E0
FF83E0
FF83E0
FFC3E0
FBC3E0
FBE3E0
F9E3E0
F9F3E0
F9F3E0
F8F3E0
F8FBE0
F87BE0
F87FE0
F83FE0
F83FE0
F81FE0
F81FE0
F80FE0
F80FE0
F807E0
F807E0
F803C0
ENDCHAR
STARTCHAR 00D2
ENCODING 210
SWIDTH 777 0
DWIDTH 28 0
BBX 26 32 1 0
BITMAP
00F80000
007C0000
003C0000
001E0000
000F0000
00000000
007F8000
01FFE000
07FFF800
0FFFFC00
1FFFFE00
3FE1FF00
3F807F00
7E001F80
7C000F80
7C000FC0
F80007C0
F80007C0
F80007C0
F80007C0
F80007C0
F80007C0
FC000FC0
7C000F80
7E001F80
3F803F00
3FE1FF00
1FFFFE00
0FFFFC00
07FFF800
01FFE000
007F8000
ENDCHAR
STARTCHAR 00D3
ENCODING 211
SWIDTH 777 0
DWIDTH 28 0
BBX 26 32 1 0
BITMAP
0007E000
000FC000
000F8000
001E0000
003C0000
00000000
007F8000
01FFE000
07FFF800
0FFFFC00
1FFFFE00
3FE1FF00
3F807F00
7E001F80
7C000F80
7C000FC0
F80007C0
F80007C0
F80007C0
F80007C0
F80007C0
F80007C0
FC000FC0
7C000F80
7E001F80
3F803F00
3FE1FF00
1FFFFE00
0FFFFC00
07FFF800
01FFE000
007F8000
ENDCHAR
STARTCHAR 00D4
ENCODING 212
SWIDTH 777 0
DWIDTH 28 0
BBX 26 32 1 0
BITMAP
001F0000
003F8000
007BC000
00F1E000
01F1F000
00000000
007F8000
01FFE000
07FFF800
0FFFFC00
1FFFFE00
3FE1FF00
3F807F00
7E001F80
7C000F80
7C000FC0
F80007C0
F80007C0
F80007C0
F80007C0
F80007C0
F80007C0
FC000FC0
7C000F80
7E001F80
3F803F00
3FE1FF00
1FFFFE00
0FFFFC00
07FFF800
01FFE000
007F8000
ENDCHAR
STARTCHAR 00D5
ENCODING 213
SWIDTH 777 0
DWIDTH 28 0
BBX 26 33 1 0
BITMAP
00787000
01FFF000
01FFE000
038FE000
0383C000
00000000
00000000
007F8000
01FFE000
07FFF800
0FFFFC00
1FFFFE00
3FE1FF00
3F807F00
7E001F80
7C000F80
7C000FC0
F80007C0
F80007C0
F80007C0
F80007C0
F80007C0
F80007C0
FC000FC0
7C000F80
7E001F80
3F803F00
3FE1FF00
1FFFFE00
0FFFFC00
07FFF800
01FFE000
007F8000
ENDCHAR
STARTCHAR 00D6
ENCODING 214
SWIDTH 777 0
DWIDTH 28 0
BBX 26 32 1 0
BITMAP
00E1C000
01F3E000
01F3E000
01F3E000
00E1C000
00000000
007F8000
01FFE000
07FFF800
0FFFFC00
1FFFFE00
3FE1FF00
3F807F00
7E001F80
7C000F80
7C000FC0
F80007C0
F80007C0
F80007C0
F80007C0
F80007C0
F80007C0
FC000FC0
7C000F80
7E001F80
3F803F00
3FE1FF00
1FFFFE00
0FFFFC00
07FFF800
01FFE000
007F8000
ENDCHAR
STARTCHAR 00D7
ENCODING 215
SWIDTH 611 0
DWIDTH 22 0
BBX 17 18 2 0
BITMAP
200200
700700
F80F80
FC1F00
7E3F00
3F7E00
1FFC00
0FF800
07F000
07F000
0FF800
1FFC00
3F7E00
7E3F00
7C1F80
F80F80
700700
200200
ENDCHAR
STARTCHAR 00D8
ENCODING 216
SWIDTH 777 0
DWIDTH 28 0
BBX 28 26 0 0
BITMAP
001FC0F0
00FFF9E0
03FFFFC0
07FFFF80
0FFFFF00
1FC07F80
1F803FC0
3F007FC0
3E00F7C0
3E01E7E0
7C03C3E0
7C0783E0
7C0F83E0
7C1F03E0
7C3E03E0
7E7C03E0
7EF807E0
3FF007C0
3FE00FC0
1FC03F80
1FF8FF80
0FFFFF00
1FFFFE00
3FFFFC00
78FFF000
F03F8000
ENDCHAR
STARTCHAR 00D9
ENCODING 217
SWIDTH 611 0
DWIDTH 22 0
BBX 17 32 2 0
BITMAP
0F8000
078000
03C000
01E000
00F000
000000
F80F80
F80F80
F80F80
F80F80
F80F80
F80F80
F80F80
F80F80
F80F80
F80F80
F80F80
F80F80
F80F80
F80F80
F80F80
F80F80
F80F80
F80F80
F80F80
FC1F80
FE3F80
7FFF00
7FFF00
3FFE00
1FFC00
07F000
ENDCHAR
STARTCHAR 00DA
ENCODING 218
SWIDTH 611 0
DWIDTH 22 0
BBX 18 32 2 0
BITMAP
007E00
007C00
00F800
01E000
03C000
000000
F807C0
F807C0
F807C0
F807C0
F807C0
F807C0
F807C0
F807C0
F807C0
F807C0
F807C0
F807C0
F807C0
F807C0
F807C0
F807C0
F807C0
F807C0
F807C0
FC0FC0
FF1FC0
7FFF80
7FFF80
3FFF00
1FFE00
07F000
ENDCHAR
STARTCHAR 00DB
ENCODING 219
SWIDTH 611 0
DWIDTH 22 0
BBX 17 32 2 0
BITMAP
03E000
07F000
0F7800
1E3C00
3E3C00
000000
F80F80
F80F80
F80F80
F80F80
F80F80
F80F80
F80F80
F80F80
F80F80
F80F80
F80F80
F80F80
F80F80
F80F80
F80F80
F80F80
F80F80
F80F80
F80F80
FC1F80
FE3F80
7FFF00
7FFF00
3FFE00
1FFC00
07F000
ENDCHAR
STARTCHAR 00DC
ENCODING 220
SWIDTH 611 0
DWIDTH 22 0
BBX 17 32 2 0
BITMAP
0E1C00
1F3E00
1F3E00
1F3E00
0E1C00
000000
F80F80
F80F80
F80F80
F80F80
F80F80
F80F80
F80F80
F80F80
F80F80
F80F80
F80F80
F80F80
F80F80
F80F80
F80F80
F80F80
F80F80
F80F80
F80F80
FC1F80
FE3F80
7FFF00
7FFF00
3FFE00
1FFC00
07F000
ENDCHAR
STARTCHAR 00DD
ENCODING 221
SWIDTH 555 0
DWIDTH 20 0
BBX 16 32 2 0
BITMAP
00F8
01F0
01E0
03C0
0780
0000
F81F
F81F
F81F
F81F
F81F
F81F
F81F
F81F
F81F
F81F
FC3F
FFFF
7FFE
7FFE
3FFC
1FF0
07C0
07C0
07C0
07C0
07C0
07C0
07C0
07C0
07C0
07C0
ENDCHAR
STARTCHAR 00DE
ENCODING 222
SWIDTH 555 0
DWIDTH 20 0
BBX 17 26 2 0
BITMAP
F80000
F80000
F80000
F80000
FFE000
FFF800
FFFE00
FFFE00
FFFF00
FC3F80
FC0F80
F80F80
F80F80
F80F80
F81F80
F83F00
F9FF00
F9FE00
F9FE00
F9F800
F9E000
F80000
F80000
F80000
F80000
F80000
ENDCHAR
STARTCHAR 00DF
ENCODING 223
SWIDTH 611 0
DWIDTH 22 0
BBX 20 26 1 0
BITMAP
03F000
07FC00
1FFE00
1FFF00
3F3F00
3E1F00
3E1F00
3E1F00
FE3E00
FE3C00
FE7E00
FE7F00
FE3F80
3E1FC0
3E07E0
3E03E0
3E03F0
3E01F0
3E01F0
3E01F0
3E03F0
3EFFF0
3EFFE0
3EFFC0
3EFF80
3EFE00
ENDCHAR
STARTCHAR 00E0
ENCODING 224
SWIDTH 555 0
DWIDTH 20 0
BBX 18 26 1 0
BITMAP
0FC000
07C000
03E000
01E000
00F000
000000
000000
000000
03F000
0FFE00
1FFF00
3FFF80
7FFF80
7E0FC0
FC07C0
F807C0
F807C0
F807C0
F807C0
FC07C0
7E07C0
7FF7C0
3FF7C0
3FF7C0
0FF7C0
03F7C0
ENDCHAR
STARTCHAR 00E1
ENCODING 225
SWIDTH 555 0
DWIDTH 20 0
BBX 18 26 1 0
BITMAP
007E00
007C00
00F800
01F000
01E000
000000
000000
000000
03F000
0FFE00
1FFF00
3FFF80
7FFF80
7E0FC0
FC07C0
F807C0
F807C0
F807C0
F807C0
FC07C0
7E07C0
7FF7C0
3FF7C0
3FF7C0
1FF7C0
07F7C0
ENDCHAR
STARTCHAR 00E2
ENCODING 226
SWIDTH 555 0
DWIDTH 20 0
BBX 18 26 1 0
BITMAP
01F000
03F800
07BC00
0FBE00
0F1E00
000000
000000
000000
03F000
0FFE00
1FFF00
3FFF80
7FFF80
7E0FC0
FC07C0
F807C0
F807C0
F807C0
F807C0
FC07C0
7E07C0
7FF7C0
3FF7C0
3FF7C0
0FF7C0
07F7C0
ENDCHAR
STARTCHAR 00E3
ENCODING 227
SWIDTH 555 0
DWIDTH 20 0
BBX 18 26 1 0
BITMAP
078300
0FFF00
0FFF00
1CFE00
183C00
000000
000000
000000
03F000
0FFE00
1FFF00
3FFF80
7FFF80
7E0FC0
FC07C0
F807C0
F807C0
F807C0
F807C0
FC07C0
7E07C0
7FF7C0
3FF7C0
3FF7C0
0FF7C0
07F7C0
ENDCHAR
STARTCHAR 00E4
ENCODING 228
SWIDTH 555 0
DWIDTH 20 0
BBX 18 25 1 0
BITMAP
0E1C00
1F3E00
1F3E00
1F3E00
0E1C00
000000
000000
03F000
0FFE00
1FFF00
3FFF80
7FFF80
7E0FC0
FC07C0
F807C0
F807C0
F807C0
F807C0
FC07C0
7E07C0
7FE7C0
3FE7C0
3FE7C0
1FE7C0
07E7C0
ENDCHAR
STARTCHAR 00E5
ENCODING 229
SWIDTH 555 0
DWIDTH 20 0
BBX 18 28 1 0
BITMAP
01E000
03F000
071800
061800
071800
03F000
01E000
000000
000000
000000
03F000
0FFE00
1FFF00
3FFF80
7FFF80
7E0FC0
FC07C0
F807C0
F807C0
F807C0
F807C0
FC07C0
7E07C0
7FE7C0
3FE7C0
3FE7C0
1FE7C0
07E7C0
ENDCHAR
STARTCHAR 00E6
ENCODING 230
SWIDTH 888 0
DWIDTH 32 0
BBX 31 18 1 0
BITMAP
0FE03F80
7FF8FFE0
7FFFFFF0
3FFFFFF8
3FFFFFF8
00FFE1F8
07FFC7E0
1FFF8FC0
3FCF9F00
7E0F8E20
7C0F883E
F81FC07C
F83FE0FC
FFFFFFF8
FFFFFFF8
7FF9FFF0
3FF0FFC0
1F803F00
ENDCHAR
STARTCHAR 00E7
ENCODING 231
SWIDTH 388 0
DWIDTH 14 0
BBX 11 26 1 -8
BITMAP
07E0
1FE0
3FE0
7FE0
7FE0
7C00
FC00
F800
F800
F800
F800
FC00
FC00
7FE0
7FE0
3FE0
1FE0
07E0
0300
07C0
07E0
00E0
00E0
00E0
1FC0
0F80
ENDCHAR
STARTCHAR 00E8
ENCODING 232
SWIDTH 555 0
DWIDTH 20 0
BBX 18 26 1 0
BITMAP
1F8000
0FC000
03C000
01E000
00E000
000000
000000
000000
03F000
0FFC00
1FFF00
3FFF00
7FFF80
7E1F80
FC7F00
F8FC00
F9F800
F9E000
F8C3C0
FC07C0
7E0FC0
7FFF80
3FFF00
1FFF00
0FFC00
03F000
ENDCHAR
STARTCHAR 00E9
ENCODING 233
SWIDTH 555 0
DWIDTH 20 0
BBX 18 26 1 0
BITMAP
007C00
00F800
00F000
01E000
03C000
000000
000000
000000
03F000
0FFC00
1FFF00
3FFF80
7FFF80
7E1F80
FC7F00
F8FC00
FBF800
F9E000
F8C3C0
FC07C0
7E0FC0
7FFF80
3FFF80
1FFF00
0FFC00
03F000
ENDCHAR
STARTCHAR 00EA
ENCODING 234
SWIDTH 555 0
DWIDTH 20 0
BBX 19 26 1 0
BITMAP
01F000
03F800
07BC00
0FBE00
0F1E00
000000
000000
000000
03F800
0FFE00
1FFF00
3FFF80
7FFFC0
7E1FC0
FC3F00
F87E00
F9F800
F9F000
F8C3E0
FC03E0
7E0FC0
7FFFC0
3FFF80
1FFF00
0FFE00
03F000
ENDCHAR
STARTCHAR 00EB
ENCODING 235
SWIDTH 555 0
DWIDTH 20 0
BBX 18 25 1 0
BITMAP
0E1C00
1F3E00
1F3E00
1F3E00
0E1C00
000000
000000
03F000
0FFC00
1FFF00
3FFF00
7FFF80
7C3F80
FC7F00
F8FC00
F9F800
F9E000
F8C7C0
FC07C0
7E0FC0
7FFF80
3FFF00
1FFF00
0FFC00
03F000
ENDCHAR
STARTCHAR 00EC
ENCODING 236
SWIDTH 222 0
DWIDTH 8 0
BBX 8 26 -1 0
BITMAP
F8
7C
3C
1E
0F
00
00
00
1F
1F
1F
1F
1F
1F
1F
1F
1F
1F
1F
1F
1F
1F
1F
1F
1F
1F
ENDCHAR
STARTCHAR 00ED
ENCODING 237
SWIDTH 222 0
DWIDTH 8 0
BBX 9 26 1 0
BITMAP
1F80
3F00
3E00
7C00
7800
0000
0000
0000
FC00
FC00
FC00
FC00
FC00
FC00
FC00
FC00
FC00
FC00
FC00
FC00
FC00
FC00
FC00
FC00
FC00
FC00
ENDCHAR
STARTCHAR 00EE
ENCODING 238
SWIDTH 222 0
DWIDTH 8 0
BBX 11 26 -1 0
BITMAP
1F00
3F80
7BC0
FBE0
F1E0
0000
0000
0000
1F00
1F00
1F00
1F00
1F00
1F00
1F00
1F00
1F00
1F00
1F00
1F00
1F00
1F00
1F00
1F00
1F00
1F00
ENDCHAR
STARTCHAR 00EF
ENCODING 239
SWIDTH 222 0
DWIDTH 8 0
BBX 13 25 -2 0
BITMAP
7070
F8F8
F8F8
F8F8
7070
0000
0000
0F80
0F80
0F80
0F80
0F80
0F80
0F80
0F80
0F80
0F80
0F80
0F80
0F80
0F80
0F80
0F80
0F80
0F80
ENDCHAR
STARTCHAR 00F0
ENCODING 240
SWIDTH 555 0
DWIDTH 20 0
BBX 18 26 1 0
BITMAP
006200
00FF00
01FF00
00FC00
01FC00
03FE00
01BE00
001F00
03DF00
0FCF80
1FEF80
3FEFC0
7FE7C0
7C07C0
F807C0
F807C0
F807C0
F807C0
F807C0
FC0FC0
7E1F80
7FFF80
3FFF00
1FFE00
0FFC00
03F000
ENDCHAR
STARTCHAR 00F1
ENCODING 241
SWIDTH 500 0
DWIDTH 18 0
BBX 15 26 2 0
BITMAP
1E0C
3FFC
3FFC
71F8
6070
0000
0000
0000
0FE0
3FF8
7FFC
7FFE
FFFE
FC7E
F83E
F83E
F83E
F83E
F83E
F83E
F83E
F83E
F83E
F83E
F83E
F83E
ENDCHAR
STARTCHAR 00F2
ENCODING 242
SWIDTH 555 0
DWIDTH 20 0
BBX 18 26 1 0
BITMAP
0F8000
07C000
03C000
01E000
00F000
000000
000000
000000
03F000
0FFC00
1FFE00
3FFF00
7FFF80
7E1F80
FC0FC0
F807C0
F807C0
F807C0
F807C0
FC0FC0
7E0F80
7FFF80
3FFF00
1FFE00
0FFC00
03F000
ENDCHAR
STARTCHAR 00F3
ENCODING 243
SWIDTH 555 0
DWIDTH 20 0
BBX 18 26 1 0
BITMAP
007C00
00F800
00F000
01E000
03C000
000000
000000
000000
03F000
0FFC00
1FFE00
3FFF00
7FFF80
7E1F80
FC0FC0
F807C0
F807C0
F807C0
F807C0
FC0FC0
7E0F80
7FFF80
3FFF00
1FFE00
0FFC00
03F000
ENDCHAR
STARTCHAR 00F4
ENCODING 244
SWIDTH 555 0
DWIDTH 20 0
BBX 19 26 1 0
BITMAP
01F000
03F800
07BC00
0FBE00
0F1F00
000000
000000
000000
03F800
0FFE00
1FFF00
3FFF80
7FFFC0
7E0FC0
FC07E0
F803E0
F803E0
F803E0
F803E0
FC07E0
7E0FC0
7FFFC0
3FFF80
1FFF00
0FFE00
03F800
ENDCHAR
STARTCHAR 00F5
ENCODING 245
SWIDTH 555 0
DWIDTH 20 0
BBX 18 26 1 0
BITMAP
0F8600
1FFE00
1FFE00
3CFC00
383800
000000
000000
000000
03F000
0FFC00
1FFE00
3FFF00
7FFF80
7E1F80
FC0FC0
F807C0
F807C0
F807C0
F807C0
FC0FC0
7E0F80
7FFF80
3FFF00
1FFE00
0FFC00
03F000
ENDCHAR
STARTCHAR 00F6
ENCODING 246
SWIDTH 555 0
DWIDTH 20 0
BBX 18 25 1 0
BITMAP
0E1C00
1F3E00
1F3E00
1F3E00
0E1C00
000000
000000
03F000
0FFC00
1FFE00
3FFF00
7FFF80
7E1F80
FC0FC0
F807C0
F807C0
F807C0
F807C0
FC0FC0
7E0F80
7FFF80
3FFF00
1FFE00
0FFC00
03F000
ENDCHAR
STARTCHAR 00F7
ENCODING 247
SWIDTH 611 0
DWIDTH 22 0
BBX 18 21 2 -2
BITMAP
01E000
03F000
03F000
03F000
03F000
01E000
000000
000000
FFFFC0
FFFFC0
FFFFC0
FFFFC0
000000
000000
000000
01E000
03F000
03F000
03F000
03F000
01E000
ENDCHAR
STARTCHAR 00F8
ENCODING 248
SWIDTH 555 0
DWIDTH 20 0
BBX 20 18 0 0
BITMAP
01F9F0
07FFE0
0FFFC0
1FFF80
3FFFC0
3F1FC0
7E3FE0
7C7BE0
7C73E0
7CE3E0
7DC3E0
7FC7E0
3F87C0
3FFFC0
1FFF80
3FFF00
7FFE00
F1F800
ENDCHAR
STARTCHAR 00F9
ENCODING 249
SWIDTH 500 0
DWIDTH 18 0
BBX 16 26 2 0
BITMAP
3F00
1F80
0F80
07C0
03E0
0000
0000
0000
F81F
F81F
F81F
F81F
F81F
F81F
F81F
F81F
F81F
F81F
F81F
F81F
FC3F
FFFF
7FFE
7FFE
3FFC
0FF0
ENDCHAR
STARTCHAR 00FA
ENCODING 250
SWIDTH 500 0
DWIDTH 18 0
BBX 15 26 2 0
BITMAP
01F8
01F0
03E0
07C0
0780
0000
0000
0000
F83E
F83E
F83E
F83E
F83E
F83E
F83E
F83E
F83E
F83E
F83E
F83E
FC7E
FFFE
FFFE
7FFC
3FF8
0FE0
ENDCHAR
STARTCHAR 00FB
ENCODING 251
SWIDTH 500 0
DWIDTH 18 0
BBX 15 26 2 0
BITMAP
07C0
0FE0
1EF0
1EF8
3C78
0000
0000
0000
F83E
F83E
F83E
F83E
F83E
F83E
F83E
F83E
F83E
F83E
F83E
F83E
FC7E
FFFE
FFFE
7FFC
3FF8
0FE0
ENDCHAR
STARTCHAR 00FC
ENCODING 252
SWIDTH 500 0
DWIDTH 18 0
BBX 15 25 2 0
BITMAP
3870
7CF8
7CF8
7CF8
3870
0000
0000
F83E
F83E
F83E
F83E
F83E
F83E
F83E
F83E
F83E
F83E
F83E
F83E
FC7E
FFFE
FFFE
7FFC
3FF8
0FE0
ENDCHAR
STARTCHAR 00FD
ENCODING 253
SWIDTH 500 0
DWIDTH 18 0
BBX 16 34 2 -8
BITMAP
00FC
01F8
01F0
03E0
03C0
0000
0000
0000
F81F
F81F
F81F
F81F
F81F
F81F
F81F
F81F
F81F
F81F
F81F
F81F
FC1F
FFFF
7FFE
7FFE
3FFC
1FF8
07E0
07E0
07E0
07E0
07E0
07E0
07E0
07E0
ENDCHAR
STARTCHAR 00FE
ENCODING 254
SWIDTH 555 0
DWIDTH 20 0
BBX 17 34 2 -8
BITMAP
F80000
F80000
F80000
F80000
F80000
F80000
F80000
F80000
FFF000
FFFC00
FFFE00
FFFE00
FFFF00
FE3F00
FC1F80
F80F80
F80F80
F80F80
F80F80
F81F80
F83F00
FBFF00
FBFE00
FBFE00
FBF800
FBF000
F80000
F80000
F80000
F80000
F80000
F80000
F80000
F80000
ENDCHAR
STARTCHAR 00FF
ENCODING 255
SWIDTH 500 0
DWIDTH 18 0
BBX 16 33 2 -8
BITMAP
3838
7C7C
7C7C
7C7C
3838
0000
0000
F81F
F81F
F81F
F81F
F81F
F81F
F81F
F81F
F81F
F81F
F81F
F81F
FC1F
FFFF
7FFE
7FFE
3FFC
1FF0
07C0
07C0
07C0
07C0
07C0
07C0
07C0
07C0
ENDCHAR
STARTCHAR 0131
ENCODING 305
SWIDTH 222 0
DWIDTH 8 0
BBX 5 18 2 0
BITMAP
F8
F8
F8
F8
F8
F8
F8
F8
F8
F8
F8
F8
F8
F8
F8
F8
F8
F8
ENDCHAR
STARTCHAR 0141
ENCODING 321
SWIDTH 388 0
DWIDTH 14 0
BBX 14 26 0 0
BITMAP
3E00
3E00
3E00
3E00
3E00
3E00
3E00
3E00
3FC0
3FC0
FFC0
FFC0
FF00
FE00
BE00
3E00
3E00
3E00
3E00
3F00
3FC0
3FFC
1FFC
1FFC
0FFC
03FC
ENDCHAR
STARTCHAR 0142
ENCODING 322
SWIDTH 222 0
DWIDTH 8 0
BBX 9 26 0 0
BITMAP
3E00
3E00
3E00
3E00
3E00
3E00
3E00
3E00
3E00
3F80
3F80
3F80
FF00
FE00
FE00
BE00
3E00
3E00
3E00
3E00
3E00
3E00
3E00
3E00
3E00
3E00
ENDCHAR
STARTCHAR 0152
ENCODING 338
SWIDTH 1000 0
DWIDTH 36 0
BBX 34 26 1 0
BITMAP
007E000FC0
01FFC07FC0
07FFE0FFC0
0FFFF1FFC0
1FFFFBFFC0
3FC3FFF800
3F00FFC000
7E007F8000
7C003F8000
7C003F0000
F8001FFFC0
F8001FFFC0
F8001FFFC0
F8001FFFC0
F8001FFFC0
F8001F0000
FC003F0000
7C003F8000
7E007FC000
3F00FFE000
3FE3FFF800
1FFFFFFFC0
0FFFF3FFC0
07FFE1FFC0
03FFC07FC0
007E001FC0
ENDCHAR
STARTCHAR 0153
ENCODING 339
SWIDTH 944 0
DWIDTH 34 0
BBX 32 18 1 0
BITMAP
03F01F80
0FFC7FE0
1FFEFFF8
3FFFFFF8
7FFFFFFC
7E1FF07E
FC0FE1FC
F807C7F0
F807CFC0
F807C780
F807C61F
FC0FE03F
7E0FF07E
7FFFFFFE
3FFFFFFC
1FFEFFF8
0FFC7FF0
03F01F80
ENDCHAR
STARTCHAR 0160
ENCODING 352
SWIDTH 500 0
DWIDTH 18 0
BBX 16 32 1 0
BITMAP
3C3C
1E78
0FF0
07F0
03E0
0000
0FFF
3FFF
7FFF
7FFF
FFFF
FC00
FC00
FC00
FE00
7F80
7FC0
3FE0
1FF8
0FFC
07FE
01FE
00FF
007F
003F
003F
007F
FFFE
FFFE
FFFC
FFF8
FFF0
ENDCHAR
STARTCHAR 0161
ENCODING 353
SWIDTH 388 0
DWIDTH 14 0
BBX 13 26 1 0
BITMAP
F078
78F0
3DE0
1FE0
1FC0
0000
0000
0000
1FF8
3FF8
7FF8
FFF8
FC00
F800
FE00
7F80
3FC0
1FF0
07F0
01F8
00F8
01F8
FFF8
FFF0
FFE0
FFC0
ENDCHAR
STARTCHAR 0178
ENCODING 376
SWIDTH 555 0
DWIDTH 20 0
BBX 16 32 2 0
BITMAP
1C38
3E7C
3E7C
3E7C
1C38
0000
F81F
F81F
F81F
F81F
F81F
F81F
F81F
F81F
F81F
F81F
FC3F
FFFF
7FFE
7FFE
3FFC
1FF0
07C0
07C0
07C0
07C0
07C0
07C0
07C0
07C0
07C0
07C0
ENDCHAR
STARTCHAR 017D
ENCODING 381
SWIDTH 500 0
DWIDTH 18 0
BBX 17 32 0 0
BITMAP
3E3E00
1E3C00
0F7800
07F000
03E000
000000
7FFF00
7FFF80
7FFF80
7FFF80
7FFF80
007F00
007F00
00FE00
01FC00
01FC00
03F800
03F000
07F000
07E000
0FC000
1FC000
1F8000
3F0000
3F0000
7E0000
7E0000
FFFF80
FFFF80
FFFF80
FFFF80
7FFF80
ENDCHAR
STARTCHAR 017E
ENCODING 382
SWIDTH 444 0
DWIDTH 16 0
BBX 14 26 0 0
BITMAP
7C7C
3C78
1EF0
0FE0
07C0
0000
0000
0000
7FF8
7FFC
7FFC
7FFC
7FFC
01F8
01F0
03F0
07E0
0FC0
1F80
3F00
7E00
FFFC
FFFC
FFFC
FFFC
7FFC
ENDCHAR
STARTCHAR 0192
ENCODING 402
SWIDTH 555 0
DWIDTH 20 0
BBX 19 34 0 -8
BITMAP
0007C0
000FE0
001FE0
003FE0
003FE0
003FE0
007FE0
007FE0
007FE0
007FE0
1FFFE0
1FFFE0
1FFFE0
1FFFE0
1FFFE0
00FFC0
00FFC0
00FFC0
00FFC0
01FFC0
01FF80
01FF80
01FF80
01FF80
01FF80
01FF80
01FF00
03FF00
07FF00
7FFE00
FFFC00
FFF800
FFF000
3FC000
ENDCHAR
STARTCHAR 02C6
ENCODING 710
SWIDTH 222 0
DWIDTH 8 0
BBX 11 5 -1 20
BITMAP
1F00
3F80
7BC0
FBE0
F1E0
ENDCHAR
STARTCHAR 02C7
ENCODING 711
SWIDTH 222 0
DWIDTH 8 0
BBX 13 5 -2 20
BITMAP
F8F8
78F0
3DE0
1FC0
0F80
ENDCHAR
STARTCHAR 02D8
ENCODING 728
SWIDTH 222 0
DWIDTH 8 0
BBX 12 5 -2 21
BITMAP
E030
F070
7FE0
3FC0
1F80
ENDCHAR
STARTCHAR 02D9
ENCODING 729
SWIDTH 222 0
DWIDTH 8 0
BBX 5 5 1 20
BITMAP
70
F8
F8
F8
70
ENDCHAR
STARTCHAR 02DA
ENCODING 730
SWIDTH 222 0
DWIDTH 8 0
BBX 8 7 0 21
BITMAP
3C
7E
E7
C3
E7
7E
3C
ENDCHAR
STARTCHAR 02DB
ENCODING 731
SWIDTH 222 0
DWIDTH 8 0
BBX 8 8 -1 -8
BITMAP
07
18
70
60
E0
E0
FF
7E
ENDCHAR
STARTCHAR 02DC
ENCODING 732
SWIDTH 222 0
DWIDTH 8 0
BBX 13 5 -3 21
BITMAP
3C18
7FF8
7FF0
E7F0
C1E0
ENDCHAR
STARTCHAR 02DD
ENCODING 733
SWIDTH 222 0
DWIDTH 8 0
BBX 16 5 -3 20
BITMAP
1F3F
3E3E
3C7C
78F8
F0F0
ENDCHAR
STARTCHAR 2013
ENCODING 8211
SWIDTH 500 0
DWIDTH 18 0
BBX 18 3 0 7
BITMAP
FFFFC0
FFFFC0
FFFFC0
ENDCHAR
STARTCHAR 2014
ENCODING 8212
SWIDTH 1000 0
DWIDTH 36 0
BBX 36 3 0 7
BITMAP
FFFFFFFFF0
FFFFFFFFF0
FFFFFFFFF0
ENDCHAR
STARTCHAR 2018
ENCODING 8216
SWIDTH 222 0
DWIDTH 8 0
BBX 6 8 1 17
BITMAP
F8
F8
78
78
7C
7C
3C
3C
ENDCHAR
STARTCHAR 2019
ENCODING 8217
SWIDTH 222 0
DWIDTH 8 0
BBX 5 8 1 17
BITMAP
78
78
78
78
F8
F0
F0
F0
ENDCHAR
STARTCHAR 201A
ENCODING 8218
SWIDTH 222 0
DWIDTH 8 0
BBX 5 8 1 -4
BITMAP
78
78
78
78
F0
F0
F0
F0
ENDCHAR
STARTCHAR 201C
ENCODING 8220
SWIDTH 388 0
DWIDTH 14 0
BBX 13 8 1 17
BITMAP
F9F0
F9F0
78F0
78F0
78F8
78F8
3878
3878
ENDCHAR
STARTCHAR 201D
ENCODING 8221
SWIDTH 388 0
DWIDTH 14 0
BBX 12 8 1 17
BITMAP
7CF0
7CF0
78F0
78F0
F9F0
F1E0
F1E0
F1E0
ENDCHAR
STARTCHAR 201E
ENCODING 8222
SWIDTH 388 0
DWIDTH 14 0
BBX 12 8 1 -4
BITMAP
7CF0
7CF0
78F0
78F0
F9E0
F1E0
F1E0
F1E0
ENDCHAR
STARTCHAR 2020
ENCODING 8224
SWIDTH 500 0
DWIDTH 18 0
BBX 14 30 2 -4
BITMAP
0780
0780
0780
0780
0300
0300
E31C
FFFC
FFFC
F33C
0300
0380
0780
0780
0780
07C0
0780
0780
0780
0780
0780
0780
0780
0780
0300
0300
0300
0300
0300
0300
ENDCHAR
STARTCHAR 2021
ENCODING 8225
SWIDTH 500 0
DWIDTH 18 0
BBX 14 30 2 -4
BITMAP
0780
0780
0780
0780
0300
0300
E31C
FFFC
FFFC
F33C
0300
0380
0780
0780
0780
0780
0780
0780
0780
0300
E31C
FFFC
FFFC
F33C
0300
0300
0780
0780
0780
0780
ENDCHAR
STARTCHAR 2022
ENCODING 8226
SWIDTH 500 0
DWIDTH 18 0
BBX 13 13 3 6
BITMAP
0F80
3FE0
7FF0
7FF0
FFF8
FFF8
FFF8
FFF8
FFF8
7FF0
7FF0
3FE0
0F80
ENDCHAR
STARTCHAR 2026
ENCODING 8230
SWIDTH 1000 0
DWIDTH 36 0
BBX 30 6 3 1
BITMAP
78078078
FC0FC0FC
FC0FC0FC
FC0FC0FC
FC0FC0FC
78078078
ENDCHAR
STARTCHAR 2030
ENCODING 8240
SWIDTH 1000 0
DWIDTH 36 0
BBX 35 24 0 1
BITMAP
1F00300000
3F80700000
7FC0600000
F1E0C00000
E0E1C00000
E0E3800000
E0E3000000
F1E7000000
7FCE000000
3F8C000000
1F18000000
0038000000
0030000000
0060000000
00E1E00F00
01C7F83FC0
0187F83FC0
038F3C79E0
070E1C70E0
060E1C70E0
0C0F3C79E0
1C07F83FC0
3807F83FC0
3001E00F00
ENDCHAR
STARTCHAR 2039
ENCODING 8249
SWIDTH 333 0
DWIDTH 12 0
BBX 8 11 2 3
BITMAP
0F
1E
3C
38
70
F0
70
38
3C
1E
0F
ENDCHAR
STARTCHAR 203A
ENCODING 8250
SWIDTH 333 0
DWIDTH 12 0
BBX 8 11 2 3
BITMAP
F0
78
3C
1C
0E
0F
0E
1C
3C
78
F0
ENDCHAR
STARTCHAR 2044
ENCODING 8260
SWIDTH 166 0
DWIDTH 6 0
BBX 18 26 -6 0
BITMAP
0003C0
000380
000780
000700
000E00
000E00
001C00
003C00
003800
007800
007000
00E000
00E000
01C000
03C000
038000
078000
070000
0F0000
0E0000
1C0000
1C0000
380000
780000
700000
F00000
ENDCHAR
STARTCHAR 2122
ENCODING 8482
SWIDTH 1000 0
DWIDTH 36 0
BBX 33 16 1 10
BITMAP
FFF1F81F80
FFF1F81F80
FFF1FC3F80
0F01FC3F80
0F01FC3F80
0F01FE7F80
0F01EE7780
0F01EE7780
0F01EFF780
0F01E7E780
0F01E7E780
0F01E7E780
0F01E7E780
0F01E3C780
0F01E3C780
0F01E3C780
ENDCHAR
STARTCHAR 2212
ENCODING 8722
SWIDTH 611 0
DWIDTH 22 0
BBX 17 4 2 7
BITMAP
FFFF80
FFFF80
FFFF80
FFFF80
ENDCHAR
STARTCHAR FB01
ENCODING 64257
SWIDTH 500 0
DWIDTH 18 0
BBX 15 26 2 0
BITMAP
0F9C
3FBE
7FBE
7FBE
FF9C
F800
F800
F800
FFBE
FFBE
FFBE
FFBE
FFBE
F83E
F83E
F83E
F83E
F83E
F83E
F83E
F83E
F83E
F83E
F83E
F83E
F83E
ENDCHAR
STARTCHAR FB02
ENCODING 64258
SWIDTH 500 0
DWIDTH 18 0
BBX 15 26 2 0
BITMAP
0F3E
3F3E
7F3E
7F3E
FF3E
F83E
F83E
F83E
FF3E
FF3E
FF3E
FF3E
FF3E
F83E
F83E
F83E
F83E
F83E
F83E
F83E
F83E
F83E
F83E
F83E
F83E
F83E
ENDCHAR
ENDFONT
